/* XPM */
static char * inspect_xpm[] = {
"16 16 21 1",
" 	c None",
".	c #5D94BA",
"+	c #DCF4FF",
"@	c #DAF1FE",
"#	c #A8DFFC",
"$	c #D7EDFC",
"%	c #A1D6F8",
"&	c #D3E9FA",
"*	c #98CCF3",
"=	c #D1E6F8",
"-	c #92C4EF",
";	c #CFE4F7",
">	c #8FBFED",
",	c #D1E7F8",
"'	c #94C6F0",
")	c #AAAAAA",
"!	c #D8EEFC",
"~	c #E3E3E3",
"{	c #ECECEC",
"]	c #F8F8F8",
"^	c #F9F9F9",
"                ",
"    ....        ",
"   .++++.       ",
"  .@####@.      ",
" .$%%%%%%$.     ",
" .&******&.     ",
" .=------=.     ",
" .;>>>>>>;.     ",
"  .,'''',.)     ",
"   .!!!!.~{)    ",
"    ....)]~{)   ",
"         )]~{)  ",
"          )]^)  ",
"           ))   ",
"                ",
"                "};
