/* XPM */
static char * RedFolderOpen_xpm[] = {
"16 16 188 2",
"  	c None",
". 	c #9A132A",
"+ 	c #9F1B30",
"@ 	c #9E1E32",
"# 	c #9C1C30",
"$ 	c #8D96A8",
"% 	c #8690A4",
"& 	c #848FA2",
"* 	c #808A9E",
"= 	c #7A849A",
"- 	c #707B92",
"; 	c #707C93",
"> 	c #7D010E",
", 	c #8C0014",
"' 	c #9B001A",
") 	c #9B001B",
"! 	c #99001A",
"~ 	c #95243A",
"{ 	c #94354C",
"] 	c #963149",
"^ 	c #962D45",
"/ 	c #982941",
"( 	c #99263E",
"_ 	c #9B213A",
": 	c #892539",
"< 	c #7B8096",
"[ 	c #7E889D",
"} 	c #A2051E",
"| 	c #930016",
"1 	c #880012",
"2 	c #800007",
"3 	c #7F000C",
"4 	c #980019",
"5 	c #A0001C",
"6 	c #A6001E",
"7 	c #6A0012",
"8 	c #840009",
"9 	c #8F061B",
"0 	c #807890",
"a 	c #8C8093",
"b 	c #960018",
"c 	c #B00021",
"d 	c #6A0004",
"e 	c #680007",
"f 	c #740010",
"g 	c #800012",
"h 	c #7C000F",
"i 	c #6D000B",
"j 	c #5B0006",
"k 	c #7C0007",
"l 	c #97031B",
"m 	c #84768F",
"n 	c #9F6C7A",
"o 	c #9E0019",
"p 	c #BA0223",
"q 	c #A4021A",
"r 	c #9E000B",
"s 	c #9A0010",
"t 	c #AC021E",
"u 	c #A20118",
"v 	c #6B0005",
"w 	c #9F011A",
"x 	c #86738C",
"y 	c #95505B",
"z 	c #A4001B",
"A 	c #C50227",
"B 	c #BB021F",
"C 	c #9C0010",
"D 	c #74000B",
"E 	c #AE021D",
"F 	c #9A000B",
"G 	c #7A000B",
"H 	c #866F88",
"I 	c #94404A",
"J 	c #AC011D",
"K 	c #CE0329",
"L 	c #C60222",
"M 	c #A6000A",
"N 	c #890006",
"O 	c #93000A",
"P 	c #9D0005",
"Q 	c #9B0217",
"R 	c #BB0122",
"S 	c #866D85",
"T 	c #943138",
"U 	c #B40220",
"V 	c #D8032C",
"W 	c #D10226",
"X 	c #B2000F",
"Y 	c #B9000F",
"Z 	c #9F0006",
"` 	c #D5032A",
" .	c #C80225",
"..	c #87687F",
"+.	c #8F4A54",
"@.	c #BA0222",
"#.	c #E2042F",
"$.	c #CA0324",
"%.	c #C60017",
"&.	c #B8000A",
"*.	c #A30003",
"=.	c #D50425",
"-.	c #D40329",
";.	c #876279",
">.	c #9A3036",
",.	c #B50220",
"'.	c #ED0532",
").	c #EE0532",
"!.	c #D40428",
"~.	c #CE001A",
"{.	c #CF0014",
"].	c #D80322",
"^.	c #A30107",
"/.	c #C90212",
"(.	c #E1032D",
"_.	c #8A5D74",
":.	c #9B2C30",
"<.	c #B4011E",
"[.	c #F70635",
"}.	c #F80635",
"|.	c #E7042A",
"1.	c #D9001C",
"2.	c #DC001A",
"3.	c #EC042A",
"4.	c #D40425",
"5.	c #AD0008",
"6.	c #E9042F",
"7.	c #91566C",
"8.	c #FE0737",
"9.	c #E80424",
"0.	c #E1001A",
"a.	c #CC0013",
"b.	c #BE0317",
"c.	c #BC0216",
"d.	c #B80212",
"e.	c #BA0212",
"f.	c #C30110",
"g.	c #EB042C",
"h.	c #9A445A",
"i.	c #B90220",
"j.	c #FF083A",
"k.	c #E00320",
"l.	c #D40010",
"m.	c #E10220",
"n.	c #F60736",
"o.	c #FF083B",
"p.	c #D80216",
"q.	c #E0042C",
"r.	c #A4394F",
"s.	c #BE0223",
"t.	c #D60423",
"u.	c #CB000C",
"v.	c #BD0113",
"w.	c #E6062E",
"x.	c #E40630",
"y.	c #E60630",
"z.	c #E80630",
"A.	c #EB0733",
"B.	c #EA0630",
"C.	c #C2000B",
"D.	c #E40632",
"E.	c #B03650",
"F.	c #C20324",
"G.	c #CC0421",
"H.	c #CC031F",
"I.	c #EE0738",
"J.	c #EE0736",
"K.	c #EE0634",
"L.	c #E8062F",
"M.	c #E7052C",
"N.	c #DF0425",
"O.	c #C5000E",
"P.	c #AF000B",
"Q.	c #FE073E",
"R.	c #C12441",
"S.	c #C90B2A",
"T.	c #DB173C",
"U.	c #DD1439",
"V.	c #DD1136",
"W.	c #DC0E33",
"X.	c #DC0B31",
"Y.	c #DB092E",
"Z.	c #DD072D",
"`.	c #DB062B",
" +	c #D60324",
".+	c #D20323",
"++	c #DA032A",
"@+	c #AC011A",
"  . + @ #     $ % & * = - ;     ",
"> , ' ) ! ~ { ] ^ / ( _ : < [   ",
"} | 1 2 3 4 5 6 6 6 7 8 9 0 a   ",
"  b c 1 d e f g h i j k l m n   ",
"  o p p q r s t p p u v w x y   ",
"  z A A A B C D E A F G t H I   ",
"  J K K K K L M N O P Q R S T   ",
"  U V V V V V W X Y Z `  ...+.  ",
"  @.#.#.#.#.#.$.%.&.*.=.-.;.>.  ",
"  ,.'.).).).!.~.{.].^./.(._.:.  ",
"  <.[.}.}.|.1.2.3.}.4.5.6.7.    ",
"  <.8.8.9.0.a.b.c.d.e.f.g.h.    ",
"  i.j.k.l.m.n.o.o.o.o.p.q.r.    ",
"  s.t.u.v.w.x.y.z.A.B.C.D.E.    ",
"  F.G.H.I.J.K.L.M.N.O.P.Q.R.    ",
"  S.T.U.V.W.X.Y.Z.`. +.+++@+    "};
