/* XPM */
static char * downloadu_xpm[] = {
"16 16 13 1",
" 	c None",
".	c #8E8E8E",
"+	c #CECECE",
"@	c #D1D1D1",
"#	c #A2A2A2",
"$	c #D4D4D4",
"%	c #A7A7A7",
"&	c #D6D6D6",
"*	c #ADADAD",
"=	c #B3B3B3",
"-	c #B9B9B9",
";	c #BDBDBD",
">	c #C0C0C0",
"       .        ",
"      .+.       ",
"     .@#@.      ",
"    .$%%%$.     ",
"   .&*****&.    ",
"   ...===...    ",
"     .---.      ",
"     .;;;.      ",
"     .>>>.      ",
"     .....      ",
"                ",
"   .........    ",
"   .>>>>>>>.    ",
"   .........    ",
"                ",
"                "};
