/* XPM */
static char * form_xpm[] = {
"16 16 16 1",
" 	c None",
".	c #84ADCD",
"+	c #8BD6F0",
"@	c #80C1E1",
"#	c #AAAAAA",
"$	c #FCFCFC",
"%	c #F8F8F8",
"&	c #DFDFDF",
"*	c #F4F4F4",
"=	c #DBDBDB",
"-	c #EFEFEF",
";	c #EBEBEB",
">	c #D3D3D3",
",	c #E9E9E9",
"'	c #D1D1D1",
")	c #F6F6F6",
"                ",
"                ",
"  ............  ",
"  .++++++++++.  ",
"  .@@@@@@@@@@.  ",
"  #$$$$$$$$$$#  ",
"  #%&&&&&&&&%#  ",
"  #*========*#  ",
"  #----------#  ",
"  #;>>>>>>>>;#  ",
"  #,'''''''',#  ",
"  #,'''''''',#  ",
"  #))))))))))#  ",
"  ############  ",
"                ",
"                "};
