/* XPM */
static char * inspectu_xpm[] = {
"16 16 17 1",
" 	c None",
".	c #8C8C8C",
"+	c #EEEEEE",
"@	c #ECECEC",
"#	c #D2D2D2",
"$	c #EAEAEA",
"%	c #CDCDCD",
"&	c #E7E7E7",
"*	c #C6C6C6",
"=	c #E5E5E5",
"-	c #C1C1C1",
";	c #E3E3E3",
">	c #BEBEBE",
",	c #C2C2C2",
"'	c #AAAAAA",
")	c #F8F8F8",
"!	c #F9F9F9",
"                ",
"    ....        ",
"   .++++.       ",
"  .@####@.      ",
" .$%%%%%%$.     ",
" .&******&.     ",
" .=------=.     ",
" .;>>>>>>;.     ",
"  .=,,,,=.'     ",
"   .$$$$.;@'    ",
"    ....');@'   ",
"         ');@'  ",
"          ')!'  ",
"           ''   ",
"                ",
"                "};
