/* XPM */
static char * LD_PlotBW_xpm[] = {
"16 16 92 2",
"  	c None",
". 	c #E2E2E2",
"+ 	c #F0F0F0",
"@ 	c #F1F1F1",
"# 	c #EFEFEF",
"$ 	c #DFDFDF",
"% 	c #E4E4E4",
"& 	c #F8F8F8",
"* 	c #FEFEFE",
"= 	c #FAFAFA",
"- 	c #F9F9F9",
"; 	c #FDFDFD",
"> 	c #FCFCFC",
", 	c #FBFBFB",
"' 	c #E3E3E3",
") 	c #DCDCDC",
"! 	c #F4F4F4",
"~ 	c #EEEEEE",
"{ 	c #F7F7F7",
"] 	c #F6F6F6",
"^ 	c #F5F5F5",
"/ 	c #DADADA",
"( 	c #D4D4D4",
"_ 	c #C2C2C2",
": 	c #E8E8E8",
"< 	c #D1D1D1",
"[ 	c #D3D3D3",
"} 	c #EDEDED",
"| 	c #F2F2F2",
"1 	c #CECECE",
"2 	c #DDDDDD",
"3 	c #C7C7C7",
"4 	c #C8C8C8",
"5 	c #C6C6C6",
"6 	c #D0D0D0",
"7 	c #D2D2D2",
"8 	c #D5D5D5",
"9 	c #E6E6E6",
"0 	c #E0E0E0",
"a 	c #D9D9D9",
"b 	c #EBEBEB",
"c 	c #D6D6D6",
"d 	c #D7D7D7",
"e 	c #DBDBDB",
"f 	c #ECECEC",
"g 	c #CFCFCF",
"h 	c #9D9D9D",
"i 	c #E7E7E7",
"j 	c #CBCBCB",
"k 	c #E9E9E9",
"l 	c #CCCCCC",
"m 	c #E5E5E5",
"n 	c #C0C0C0",
"o 	c #D8D8D8",
"p 	c #A0A0A0",
"q 	c #B8B8B8",
"r 	c #BFBFBF",
"s 	c #C4C4C4",
"t 	c #CACACA",
"u 	c #C9C9C9",
"v 	c #AEAEAE",
"w 	c #949494",
"x 	c #BABABA",
"y 	c #EAEAEA",
"z 	c #A4A4A4",
"A 	c #B9B9B9",
"B 	c #C1C1C1",
"C 	c #B5B5B5",
"D 	c #AAAAAA",
"E 	c #B0B0B0",
"F 	c #B4B4B4",
"G 	c #C3C3C3",
"H 	c #B1B1B1",
"I 	c #999999",
"J 	c #E1E1E1",
"K 	c #A5A5A5",
"L 	c #9E9E9E",
"M 	c #B6B6B6",
"N 	c #F3F3F3",
"O 	c #BBBBBB",
"P 	c #BEBEBE",
"Q 	c #DEDEDE",
"R 	c #ACACAC",
"S 	c #9C9C9C",
"T 	c #B2B2B2",
"U 	c #B7B7B7",
"V 	c #979797",
"W 	c #ADADAD",
"X 	c #A6A6A6",
"Y 	c #A9A9A9",
"Z 	c #A8A8A8",
"` 	c #A7A7A7",
". + @ + # # + @ @ + # # + @ # $ ",
"% & * = - - ; * * > - - , * & ' ",
") @ = ! ~ @ { = = ] @ @ ^ - ~ / ",
"( _ : + < [ ! } ~ | < 1 @ 2 3 [ ",
"( 4 ~ + 5 / ! 6 $ | 1 7 @ $ 5 [ ",
"( 8 9 + 0 a ! b 0 | ' c @ ~ < [ ",
"6 5 % + 1 d ! a e | 8 6 f 0 4 g ",
"h 2 i j k ' l @ # j m : n < o h ",
"_ p q r j s r t 4 r 5 u r v w x ",
"6 y z A n _ 5 B B 5 B B C D ' E ",
"c 9 f z F G s _ _ s _ H I % J _ ",
"g a f e K F r 5 s r H L x 3 [ M ",
"3 r 4 f { D F B B E v ~ 7 N } 5 ",
"O P 5 Q % o I E R S 8 d c ) 6 P ",
"M T O F U F C w V W F M T C F H ",
"X Y Z ` D D Z Y Y ` Y Y ` Y D Z "};
