/* XPM */
static char * minus_xpm[] = {
"16 16 54 1",
" 	c None",
".	c #FFFFFF",
"+	c #FEFEFE",
"@	c #FDFDFD",
"#	c #130106",
"$	c #50041B",
"%	c #610521",
"&	c #630622",
"*	c #55051D",
"=	c #EEEEEE",
"-	c #F2F2F2",
";	c #80072C",
">	c #FF136E",
",	c #FF126B",
"'	c #FF1267",
")	c #FF1266",
"!	c #FF1166",
"~	c #FF1060",
"{	c #C3C3C3",
"]	c #D2D2D2",
"^	c #82072D",
"/	c #FF1162",
"(	c #FF1163",
"_	c #FF105E",
":	c #FF105B",
"<	c #E20D4E",
"[	c #858585",
"}	c #A5A5A5",
"|	c #700627",
"1	c #F20E53",
"2	c #D20C48",
"3	c #B20A3D",
"4	c #A60A39",
"5	c #A50A39",
"6	c #940933",
"7	c #5C5C5C",
"8	c #878787",
"9	c #5D5D5D",
"0	c #4D4D4D",
"a	c #4B4B4B",
"b	c #4A4A4A",
"c	c #7A7A7A",
"d	c #797979",
"e	c #787878",
"f	c #F9F9F9",
"g	c #E9E9E9",
"h	c #C2C2C2",
"i	c #BDBDBD",
"j	c #BCBCBC",
"k	c #BBBBBB",
"l	c #EDEDED",
"m	c #ECECEC",
"n	c #EBEBEB",
"o	c #FCFCFC",
"................",
"................",
"................",
"................",
"................",
"....+@@@@@@@@@@@",
"..#$%&&&&&&&&*=-",
".+;>,'))))))!~{]",
".@^/(~______:<[}",
".@|1234444445678",
".@={890abbbbb078",
".@-]}[cdeeeeec[}",
".+fg]hijkkkkkih]",
"..@f-lmmnnnnnml-",
"...+@@@@ooooo@@@",
"................"};
