/* XPM */
static char * importc_xpm[] = {
"16 16 26 1",
" 	c None",
".	c #A96262",
"+	c #D7B1B1",
"@	c #84ADCD",
"#	c #B87A7A",
"$	c #8BD6F0",
"%	c #BD8282",
"&	c #80C1E1",
"*	c #C08888",
"=	c #AAAAAA",
"-	c #FCFCFC",
";	c #E0C2C2",
">	c #C48E8E",
",	c #F8F8F8",
"'	c #DFDFDF",
")	c #C89595",
"!	c #F4F4F4",
"~	c #DBDBDB",
"{	c #CB9B9B",
"]	c #EFEFEF",
"^	c #CE9F9F",
"/	c #EBEBEB",
"(	c #D3D3D3",
"_	c #E9E9E9",
":	c #D1D1D1",
"<	c #F6F6F6",
"      .....     ",
"      .+++.     ",
"  @@@@.###.@@@  ",
"  @$$$.%%%.$$@  ",
"  @&...***...@  ",
"  =-.;;>>>;;.=  ",
"  =,'.))))).,=  ",
"  =!~~.{{{.~!=  ",
"  =]]]].^.]]]=  ",
"  =/((((.(((/=  ",
"  =_::::::::_=  ",
"  =_::::::::_=  ",
"  =<<<<<<<<<<=  ",
"  ============  ",
"                ",
"                "};
