/* XPM */
static char * LD_Plot_xpm[] = {
"16 16 213 2",
"  	c None",
". 	c #F79396",
"+ 	c #FDC8C8",
"@ 	c #FDCDCD",
"# 	c #FDC7CD",
"$ 	c #FCC4CD",
"% 	c #FDCACD",
"& 	c #FDC9CD",
"* 	c #FDC8CD",
"= 	c #FDCCCC",
"- 	c #FDC2C2",
"; 	c #F58B90",
"> 	c #F8A0A3",
", 	c #FFE6E6",
"' 	c #FFFCFC",
") 	c #FFF0FD",
"! 	c #FFEAFD",
"~ 	c #FFF6FD",
"{ 	c #FFFDFD",
"] 	c #FFF4FD",
"^ 	c #FFF3FD",
"/ 	c #FFFBFB",
"( 	c #FFE5E5",
"_ 	c #F79CA3",
": 	c #F38083",
"< 	c #FFCACA",
"[ 	c #FFEAEA",
"} 	c #FFD5EE",
"| 	c #F8C3E2",
"1 	c #FFCAED",
"2 	c #FFE2EF",
"3 	c #FFEDED",
"4 	c #FFDCEE",
"5 	c #FFDAEE",
"6 	c #FAC4C4",
"7 	c #F27C83",
"8 	c #F06668",
"9 	c #AB6060",
"0 	c #E6BEBE",
"a 	c #FFC4E4",
"b 	c #CA80A0",
"c 	c #CE84A6",
"d 	c #FFD4E4",
"e 	c #F0C9C9",
"f 	c #F0CCCC",
"g 	c #FFCDE4",
"h 	c #C882A2",
"i 	c #C07C9A",
"j 	c #FFCBE4",
"k 	c #D2A7A7",
"l 	c #B86A6A",
"m 	c #EE6268",
"n 	c #B86C6C",
"o 	c #F2CCCC",
"p 	c #B06C86",
"q 	c #DA92B6",
"r 	c #BA8A8A",
"s 	c #D6ADAD",
"t 	c #C17C9A",
"u 	c #CA83A1",
"v 	c #D6ABAB",
"w 	c #B56666",
"x 	c #D58686",
"y 	c #E2B9B9",
"z 	c #E79CC2",
"A 	c #D890B2",
"B 	c #ECC6C6",
"C 	c #D7ADAD",
"D 	c #EEA2CA",
"E 	c #D28AAB",
"F 	c #F3C8C8",
"G 	c #CC7D7D",
"H 	c #E06365",
"I 	c #B56868",
"J 	c #DEB6B6",
"K 	c #C17A94",
"L 	c #D28EAF",
"M 	c #CC9C9C",
"N 	c #CCA4A4",
"O 	c #D188A8",
"P 	c #C3809C",
"Q 	c #F6BED6",
"R 	c #DAACAC",
"S 	c #B96E6E",
"T 	c #E25E64",
"U 	c #5A1E22",
"V 	c #E09898",
"W 	c #FFA1A1",
"X 	c #FF313B",
"Y 	c #FFABD5",
"Z 	c #FF91B4",
"` 	c #FF3438",
" .	c #FFCCCC",
"..	c #FFC2C2",
"+.	c #FF3035",
"@.	c #FF9AC0",
"#.	c #FFA4CD",
"$.	c #E81E25",
"%.	c #C68282",
"&.	c #D49090",
"*.	c #6C0E0E",
"=.	c #C84454",
"-.	c #592C2F",
";.	c #DD0808",
">.	c #FF0000",
",.	c #FE323A",
"'.	c #FE1718",
").	c #FE2E2E",
"!.	c #FE2424",
"~.	c #FE1F22",
"{.	c #FE2A30",
"].	c #BA0101",
"^.	c #460F0F",
"/.	c #EE0000",
"(.	c #EA5964",
"_.	c #F0BABA",
":.	c #5C3838",
"<.	c #D71010",
"[.	c #FF0606",
"}.	c #FE0C0C",
"|.	c #FC1E1E",
"1.	c #FE0808",
"2.	c #FE0A0A",
"3.	c #CB0E0E",
"4.	c #644747",
"5.	c #E1B0B0",
"6.	c #A91B1B",
"7.	c #ED6F6F",
"8.	c #F2ABAB",
"9.	c #F0C2CC",
"0.	c #5F363E",
"a.	c #D40000",
"b.	c #FE1212",
"c.	c #FD1414",
"d.	c #FE0E0E",
"e.	c #FE1010",
"f.	c #FD1515",
"g.	c #C70000",
"h.	c #660404",
"i.	c #F6A0A0",
"j.	c #EF9A9A",
"k.	c #ED1D1D",
"l.	c #D86868",
"m.	c #F87070",
"n.	c #FCB7D5",
"o.	c #E190A7",
"p.	c #62363B",
"q.	c #CF0606",
"r.	c #FD1D1D",
"s.	c #FD1919",
"t.	c #C00707",
"u.	c #6C1214",
"v.	c #E70505",
"w.	c #FA2424",
"x.	c #F95858",
"y.	c #D70707",
"z.	c #E93636",
"A.	c #FE0202",
"B.	c #FE2428",
"C.	c #FDB8CA",
"D.	c #F8EAEA",
"E.	c #614B4B",
"F.	c #C60D0D",
"G.	c #B70B0B",
"H.	c #6D505D",
"I.	c #FAC0E2",
"J.	c #FD5156",
"K.	c #FCD3D3",
"L.	c #F8C0C0",
"M.	c #EA3232",
"N.	c #E80808",
"O.	c #F90303",
"P.	c #F7262D",
"Q.	c #FC8196",
"R.	c #F49EA0",
"S.	c #EE7878",
"T.	c #680000",
"U.	c #C30000",
"V.	c #B40000",
"W.	c #730303",
"X.	c #F2687D",
"Y.	c #F17088",
"Z.	c #FC6264",
"`.	c #F18282",
" +	c #E26262",
".+	c #E91515",
"++	c #DB0000",
"@+	c #CA0202",
"#+	c #D61A28",
"$+	c #BD1823",
"%+	c #CC151D",
"&+	c #D30101",
"*+	c #530000",
"=+	c #600000",
"-+	c #B90000",
";+	c #CF0404",
">+	c #CE0E0F",
",+	c #C00C0C",
"'+	c #CC0C0C",
")+	c #CC0608",
"!+	c #C80000",
"~+	c #9C0000",
"{+	c #AA0000",
"]+	c #A60001",
"^+	c #A20004",
"/+	c #AE0000",
"(+	c #A20000",
"_+	c #A80000",
":+	c #A30505",
"<+	c #A40606",
"[+	c #A10000",
"}+	c #A80003",
"|+	c #AC0003",
". + @ # $ $ % @ @ & $ $ * = - ; ",
"> , ' ) ! ! ~ { { ] ! ! ^ / ( _ ",
": < [ } | 1 2 3 3 4 1 1 5 [ 6 7 ",
"8 9 0 a b c d e f g h i j k l m ",
"8 n o a p q d r s g t u j v w m ",
"8 x y a z A d B C g D E j F G m ",
"H I J a K L d M N g O P Q R S T ",
"U V W X Y Z `  ...+.@.#.$.%.&.*.",
"=.-.;.>.,.'.>.).!.>.~.{.>.].^./.",
"(._.:.<.[.}.|.1.2.|.2.1.3.4.5.6.",
"7.8.9.0.a.b.c.d.e.f.e.g.h.i.j.k.",
"l.m.n.o.p.q.>.r.s.>.t.u.v.w.x.y.",
"z.A.B.C.D.E.F.1.2.G.H.I.J.K.L.M.",
"N.O.P.Q.R.S.T.U.V.W.X.Y.Z.`. +.+",
"++@+#+$+%+&+++*+=+-+;+>+,+'+)+!+",
"~+{+]+^+/+{+(+_+_+(+:+<+[+}+|+(+"};
