/* XPM */
static char * plus_xpm[] = {
"16 16 81 1",
" 	c None",
".	c #FFFFFF",
"+	c #FEFEFE",
"@	c #5D7785",
"#	c #719CB0",
"$	c #F7F7F7",
"%	c #FBFBFB",
"&	c #659ABB",
"*	c #80CEFA",
"=	c #E2E2E2",
"-	c #EFEFEF",
";	c #FAFAFA",
">	c #6294BA",
",	c #74BAF0",
"'	c #C3C3C3",
")	c #DDDDDD",
"!	c #F5F5F5",
"~	c #FDFDFD",
"{	c #6193B9",
"]	c #71B7ED",
"^	c #ABABAB",
"/	c #D1D1D1",
"(	c #F1F1F1",
"_	c #6093B9",
":	c #70B6EC",
"<	c #A2A2A2",
"[	c #CBCBCB",
"}	c #F0F0F0",
"|	c #6192B8",
"1	c #70B5EC",
"2	c #9F9F9F",
"3	c #C9C9C9",
"4	c #EDEDED",
"5	c #5D7583",
"6	c #6090A7",
"7	c #608FA9",
"8	c #5F8EA9",
"9	c #5F8EA8",
"0	c #6193AF",
"a	c #64B7E2",
"b	c #64B9F0",
"c	c #61A0D0",
"d	c #5B95B8",
"e	c #5685A0",
"f	c #5C8BA6",
"g	c #5E8DA8",
"h	c #6B93AB",
"i	c #75A4C1",
"j	c #80CDFA",
"k	c #78C0F0",
"l	c #75BEED",
"m	c #74BDEC",
"n	c #62B5E9",
"o	c #5EACE7",
"p	c #5F9FD2",
"q	c #68B0DF",
"r	c #6DB6E5",
"s	c #72BBEA",
"t	c #74BCEB",
"u	c #78B5DF",
"v	c #A1A1A1",
"w	c #9E9E9E",
"x	c #5992C2",
"y	c #5A96C8",
"z	c #6D6D6D",
"A	c #838383",
"B	c #979797",
"C	c #5D9AC9",
"D	c #64A9DF",
"E	c #C8C8C8",
"F	c #588AB0",
"G	c #69AFE5",
"H	c #BDBDBD",
"I	c #5E90B6",
"J	c #6EB4EA",
"K	c #BEBEBE",
"L	c #E1E1E1",
"M	c #6091B8",
"N	c #70B4EA",
"O	c #6C95B7",
"P	c #73ABD9",
".........++.....",
".......@#$$%+...",
".......&*==-;+..",
"......+>,'')!~..",
"......~{]^^/(~..",
"......~_:<<[}~..",
"...+~~%|12234;~~",
".567890abcdefgh(",
".ijklmmnopqrstu/",
"+$='^vwxyzzABwv^",
"+$='^vwCDzzABwv^",
".%-)/[EFGAA<HE[/",
".+;!(}4IJBBKL4}(",
"...+~~%MNwwE4;~~",
"......~OPvv[}~..",
"......~(/^^/(~.."};
