/* XPM */
static char * popu_xpm[] = {
"16 16 19 1",
" 	c None",
".	c #949494",
"+	c #C4C4C4",
"@	c #B8B8B8",
"#	c #B3B3B3",
"$	c #ECECEC",
"%	c #AEAEAE",
"&	c #E2E2E2",
"*	c #E3E3E3",
"=	c #8E8E8E",
"-	c #BEBEBE",
";	c #FFFFFF",
">	c #BABABA",
",	c #ACACAC",
"'	c #EDEDED",
")	c #B6B6B6",
"!	c #AAAAAA",
"~	c #C5C5C5",
"{	c #B1B1B1",
"                ",
"     .....      ",
"    ..+++..     ",
"    .+@@@+.     ",
"    .##$##.     ",
"    %&&&&&%     ",
"    %%***%%     ",
"    =%%%%%=     ",
"   =-%;;;%-=    ",
"  =>>>,',>>>=   ",
"  =))))!))))=   ",
"  =~{{{{{{{~=   ",
"   =~~~~~~~=    ",
"    =======     ",
"                ",
"                "};
