/* XPM */
static char * importu_xpm[] = {
"16 16 25 1",
" 	c None",
".	c #313131",
"+	c #838383",
"@	c #6A6A6A",
"#	c #464646",
"$	c #9B9B9B",
"%	c #4D4D4D",
"&	c #808080",
"*	c #535353",
"=	c #707070",
"-	c #F7F7F7",
";	c #5A5A5A",
">	c #EDEDED",
",	c #C1C1C1",
"'	c #616161",
")	c #E5E5E5",
"!	c #B8B8B8",
"~	c #696969",
"{	c #DCDCDC",
"]	c #6D6D6D",
"^	c #D4D4D4",
"/	c #ABABAB",
"(	c #D1D1D1",
"_	c #A9A9A9",
":	c #E9E9E9",
"      .....     ",
"      .+++.     ",
"  @@@@.###.@@@  ",
"  @$$$.%%%.$$@  ",
"  @&...***...@  ",
"  =-.$$;;;$$.=  ",
"  =>,.'''''.>=  ",
"  =)!!.~~~.!)=  ",
"  ={{{{.].{{{=  ",
"  =^////.///^=  ",
"  =(________(=  ",
"  =(________(=  ",
"  =::::::::::=  ",
"  ============  ",
"                ",
"                "};
