/* XPM */
static char * popc_xpm[] = {
"16 16 20 1",
" 	c None",
".	c #A6A281",
"+	c #EDE29B",
"@	c #C9C6A7",
"#	c #C6C39F",
"$	c #F4F3E3",
"%	c #B4B1A7",
"&	c #EFEDD5",
"*	c #EFEDD6",
"=	c #64A1B8",
"-	c #7CE2FF",
";	c #8DBFCE",
">	c #FFFFFF",
",	c #7BDAF9",
"'	c #8CBBCB",
")	c #EDEDED",
"!	c #7ACEF1",
"~	c #8CB5C7",
"{	c #9AD4EF",
"]	c #78C5EA",
"                ",
"     .....      ",
"    ..+++..     ",
"    .+@@@+.     ",
"    .##$##.     ",
"    %&&&&&%     ",
"    %%***%%     ",
"    =%%%%%=     ",
"   =-;>>>;-=    ",
"  =,,,')',,,=   ",
"  =!!!!~!!!!=   ",
"  ={]]]]]]]{=   ",
"   ={{{{{{{=    ",
"    =======     ",
"                ",
"                "};
